<svg width="502" height="164" viewBox="0 0 502 164" fill="none" xmlns="http://www.w3.org/2000/svg">
<path d="M75.9216 104.749C62.5333 97.3273 58.36 90.7211 58.3453 85.4879C58.3302 80.108 62.6655 74.7817 69.7392 69.927C76.669 65.171 85.5717 61.3264 93.2509 58.7619C97.0794 57.4833 100.56 56.5377 103.284 55.9605C104.292 55.7472 105.181 55.5873 105.936 55.4792C104.509 62.7325 102.061 75.0906 97.6619 85.7711C95.1481 91.8747 92.0818 97.2089 88.3803 100.704C84.8371 104.049 80.7875 105.66 75.9216 104.749Z" fill="#FA5A00"/>
<path d="M109.085 62.2419C107.56 69.4672 105.254 78.9593 101.754 87.4564C99.1446 93.7929 95.7869 99.7975 91.4186 103.922C89.1814 106.034 86.6619 107.663 83.8582 108.584C92.5961 112.107 98.4512 111.852 102.33 109.815C107.277 107.217 110.017 101.204 111.099 93.2917C112.166 85.4906 111.521 76.4963 110.344 68.9578C109.963 66.519 109.529 64.2494 109.085 62.2419Z" fill="#FA5A00"/>
<path fill-rule="evenodd" clip-rule="evenodd" d="M36 53.1505C36 40.9171 45.9171 31 58.1505 31H116.849C129.083 31 139 40.9171 139 53.1505V111.849C139 124.083 129.083 134 116.849 134H58.1505C45.9171 134 36 124.083 36 111.849V53.1505ZM110.095 51.1952L110.59 52.09C111.225 53.2386 111.953 55.4419 112.649 58.1227C113.368 60.8874 114.109 64.3851 114.717 68.2749C115.927 76.0257 116.632 85.494 115.484 93.8913C114.351 102.177 111.31 110.098 104.387 113.733C97.4318 117.386 87.5592 116.196 74.0878 108.792C60.2022 101.16 53.9417 93.3657 53.9196 85.5003C53.8978 77.7429 59.9841 71.2542 67.2348 66.278C74.6295 61.203 83.954 57.2006 91.849 54.564C95.8075 53.242 99.4511 52.2486 102.367 51.6308C103.823 51.3224 105.125 51.1018 106.21 50.9838C107.226 50.8733 108.27 50.8254 109.093 50.9921L110.095 51.1952Z" fill="#FA5A00"/>
<path fill-rule="evenodd" clip-rule="evenodd" d="M188.557 104.521C185.669 104.521 183.257 103.849 181.319 102.503C181.107 102.356 180.901 102.203 180.701 102.044V103.714H174.243V64.9692H181.615V75.5926C183.424 74.4297 185.612 73.8483 188.181 73.8483C190.961 73.8483 193.382 74.5119 195.445 75.8393C197.508 77.1667 199.104 78.9873 200.234 81.3013C201.382 83.5972 201.956 86.2251 201.956 89.1847C201.956 92.0906 201.391 94.7005 200.261 97.0144C199.149 99.3284 197.589 101.158 195.58 102.503C193.571 103.849 191.23 104.521 188.557 104.521ZM181.346 84.5569C180.916 85.8843 180.701 87.4269 180.701 89.1847C180.701 90.9426 180.916 92.4852 181.346 93.8126C181.777 95.14 182.476 96.1714 183.445 96.9068C184.432 97.6422 185.741 98.01 187.373 98.01C188.952 98.01 190.243 97.6153 191.248 96.8261C192.252 96.0368 192.997 94.9785 193.481 93.6512C193.965 92.3059 194.208 90.8171 194.208 89.1847C194.208 87.5704 193.956 86.0995 193.454 84.7721C192.952 83.4268 192.172 82.3596 191.113 81.5703C190.073 80.7631 188.737 80.3595 187.104 80.3595C185.58 80.3595 184.342 80.7273 183.391 81.4627C182.458 82.1981 181.777 83.2295 181.346 84.5569Z" fill="#FA5A00"/>
<path d="M218.693 104.575C216.415 104.575 214.559 104.189 213.124 103.418C211.689 102.647 210.568 101.669 209.761 100.485C208.971 99.3015 208.406 98.0727 208.065 96.7992C207.725 95.5077 207.518 94.3328 207.447 93.2745C207.375 92.2162 207.339 91.4449 207.339 90.9606V74.6554H214.765V88.3776C214.765 89.0413 214.801 89.8933 214.873 90.9336C214.944 91.9561 215.169 92.9875 215.545 94.0279C215.922 95.0682 216.532 95.9382 217.375 96.6377C218.236 97.3373 219.447 97.6871 221.007 97.6871C221.635 97.6871 222.308 97.5884 223.025 97.3911C223.743 97.1938 224.415 96.8171 225.043 96.2611C225.671 95.6871 226.182 94.853 226.577 93.7588C226.989 92.6467 227.196 91.1937 227.196 89.4V74.6554H234.568V103.714H228.11V100.718C227.435 101.47 226.655 102.137 225.77 102.719C223.904 103.956 221.545 104.575 218.693 104.575Z" fill="#FA5A00"/>
<path d="M247.146 102.503C249.299 103.849 251.882 104.521 254.895 104.521C258.267 104.521 261.101 103.687 263.397 102.019C265.693 100.351 267.254 97.9741 268.079 94.8888L260.599 93.3283C260.169 94.7274 259.523 95.8037 258.662 96.557C257.801 97.3104 256.545 97.6871 254.895 97.6871C252.689 97.6871 251.021 96.9068 249.891 95.3463C248.778 93.7678 248.222 91.7139 248.222 89.1847C248.222 87.5704 248.456 86.1264 248.922 84.8529C249.388 83.5614 250.115 82.5479 251.101 81.8125C252.088 81.0591 253.352 80.6824 254.895 80.6824C256.24 80.6824 257.442 81.1039 258.501 81.947C259.577 82.7901 260.33 83.965 260.761 85.4717L268.079 83.5345C267.433 80.5389 265.945 78.1801 263.613 76.4582C261.299 74.7182 258.429 73.8483 255.003 73.8483C252.043 73.8483 249.478 74.5119 247.308 75.8393C245.137 77.1667 243.451 78.9873 242.249 81.3013C241.065 83.6152 240.473 86.243 240.473 89.1847C240.473 92.0906 241.047 94.7005 242.195 97.0144C243.343 99.3284 244.994 101.158 247.146 102.503Z" fill="#FA5A00"/>
<path d="M273.407 103.714L273.461 64.9692H280.887V88.6466L290.734 74.6554H299.775L289.282 89.1847L300.474 103.714H290.95L280.887 89.7229V103.714H273.407Z" fill="#FA5A00"/>
<path d="M300.461 74.6016L309.34 103.714H314.937L321.287 84.7721L327.637 103.714H333.233L342.112 74.6554H334.955L329.682 91.983L324.327 74.6554H318.246L312.892 91.983L307.618 74.6554L300.461 74.6016Z" fill="#FA5A00"/>
<path d="M366.783 103.714V89.9919C366.783 89.3282 366.747 88.4852 366.675 87.4628C366.603 86.4224 366.379 85.382 366.002 84.3416C365.626 83.3013 365.007 82.4313 364.146 81.7318C363.303 81.0322 362.101 80.6824 360.54 80.6824C359.913 80.6824 359.24 80.7811 358.522 80.9784C357.805 81.1757 357.132 81.5613 356.504 82.1353C355.877 82.6914 355.356 83.5165 354.944 84.6107C354.549 85.7049 354.352 87.1578 354.352 88.9695V103.714H346.926V64.9692H353.437V77.6434C354.106 76.8947 354.877 76.2306 355.751 75.651C357.634 74.4133 360.002 73.7944 362.854 73.7944C365.132 73.7944 366.989 74.1801 368.424 74.9514C369.859 75.7227 370.971 76.7003 371.76 77.8842C372.567 79.068 373.141 80.3057 373.482 81.5972C373.823 82.8708 374.029 84.0367 374.101 85.095C374.173 86.1533 374.209 86.9246 374.209 87.4089V103.714H366.783Z" fill="#FA5A00"/>
<path fill-rule="evenodd" clip-rule="evenodd" d="M386.814 102.611C389.092 103.884 391.72 104.521 394.697 104.521C397.495 104.521 400.069 103.786 402.419 102.315C404.787 100.844 406.518 98.7813 407.612 96.1265L400.294 94.0279C399.756 95.2117 398.975 96.1176 397.953 96.7454C396.93 97.3732 395.702 97.6871 394.267 97.6871C391.989 97.6871 390.258 96.9517 389.074 95.4808C388.22 94.3907 387.679 92.9736 387.45 91.2296H407.854C408.159 87.7139 407.801 84.6556 406.778 82.0546C405.756 79.4537 404.177 77.4357 402.043 76.0007C399.908 74.5658 397.316 73.8483 394.267 73.8483C391.397 73.8483 388.859 74.503 386.652 75.8124C384.446 77.1039 382.715 78.9245 381.459 81.2743C380.204 83.6242 379.576 86.3865 379.576 89.5614C379.576 92.4673 380.213 95.0503 381.486 97.3104C382.778 99.5526 384.554 101.319 386.814 102.611ZM400.45 85.7946C400.236 84.2227 399.816 83.012 399.191 82.1623C398.258 80.8528 396.724 80.1981 394.59 80.1981C392.096 80.1981 390.258 80.9604 389.074 82.4851C388.405 83.3493 387.928 84.4525 387.643 85.7946H400.45Z" fill="#FA5A00"/>
<path fill-rule="evenodd" clip-rule="evenodd" d="M421.476 104.521C419.395 104.521 417.628 104.127 416.175 103.337C414.74 102.53 413.646 101.463 412.893 100.136C412.157 98.7902 411.79 97.3104 411.79 95.696C411.79 94.3507 411.996 93.122 412.409 92.0099C412.821 90.8978 413.485 89.9202 414.4 89.0771C415.332 88.2161 416.579 87.4986 418.14 86.9246C419.216 86.53 420.498 86.1802 421.987 85.8753C423.476 85.5704 425.162 85.2834 427.046 85.0143C428.154 84.8454 429.328 84.6671 430.567 84.4796C430.428 83.2816 430.034 82.3656 429.386 81.7318C428.561 80.9246 427.18 80.521 425.243 80.521C424.167 80.521 423.046 80.7811 421.88 81.3013C420.714 81.8214 419.897 82.7452 419.431 84.0726L412.812 81.9739C413.548 79.5703 414.929 77.6151 416.956 76.1084C418.983 74.6016 421.745 73.8483 425.243 73.8483C427.808 73.8483 430.086 74.2429 432.077 75.0321C434.068 75.8214 435.575 77.1846 436.597 79.1219C437.171 80.1981 437.512 81.2743 437.62 82.3506C437.727 83.4268 437.781 84.6286 437.781 85.956V103.714H431.377V100.147C430.221 101.509 428.992 102.537 427.691 103.23C426.059 104.091 423.987 104.521 421.476 104.521ZM423.036 98.7633C424.382 98.7633 425.512 98.5301 426.427 98.0638C427.359 97.5795 428.095 97.0324 428.633 96.4225C429.189 95.8126 429.566 95.3014 429.763 94.8888C430.14 94.0996 430.355 93.1848 430.409 92.1444C430.452 91.4996 430.483 90.9214 430.5 90.4098C429.295 90.6156 428.26 90.7992 427.395 90.9606C426.05 91.1937 424.965 91.409 424.14 91.6063C423.315 91.8036 422.588 92.0189 421.96 92.252C421.243 92.539 420.66 92.853 420.211 93.1938C419.781 93.5166 419.458 93.8754 419.243 94.27C419.045 94.6646 418.947 95.1041 418.947 95.5884C418.947 96.2521 419.108 96.8261 419.431 97.3104C419.772 97.7768 420.247 98.1355 420.857 98.3866C421.467 98.6378 422.193 98.7633 423.036 98.7633Z" fill="#FA5A00"/>
<path d="M456.293 104.198C458.23 104.252 460.203 104.091 462.212 103.714V97.6333C460.49 97.8665 458.921 97.9382 457.504 97.8485C456.087 97.7588 455.055 97.2028 454.409 96.1803C454.069 95.6422 453.88 94.9247 453.844 94.0279C453.827 93.113 453.818 92.0906 453.818 90.9606V80.3057H462.212V74.6554H453.818V66.5836H446.499V74.6554H441.548V80.3057H446.499V91.3911C446.499 93.131 446.517 94.6915 446.553 96.0727C446.589 97.436 446.965 98.7813 447.683 100.109C448.472 101.526 449.62 102.557 451.127 103.203C452.652 103.831 454.374 104.162 456.293 104.198Z" fill="#FA5A00"/>
</svg>
